<svg width="35" height="35" viewBox="0 0 35 35" fill="none" xmlns="http://www.w3.org/2000/svg">
<g clip-path="url(#clip0_328_3253)">
<path d="M20.7065 17.5286L34.3348 3.89987C35.2217 3.01338 35.2217 1.58005 34.3348 0.693555C33.4483 -0.192936 32.015 -0.192936 31.1285 0.693555L17.4998 14.3223L3.8715 0.693555C2.98459 -0.192936 1.55167 -0.192936 0.66518 0.693555C-0.221727 1.58005 -0.221727 3.01338 0.66518 3.89987L14.2935 17.5286L0.66518 31.1573C-0.221727 32.0438 -0.221727 33.4771 0.66518 34.3636C1.10697 34.8058 1.68786 35.028 2.26834 35.028C2.84881 35.028 3.42929 34.8058 3.8715 34.3636L17.4998 20.7349L31.1285 34.3636C31.5707 34.8058 32.1512 35.028 32.7317 35.028C33.3122 35.028 33.8926 34.8058 34.3348 34.3636C35.2217 33.4771 35.2217 32.0438 34.3348 31.1573L20.7065 17.5286Z" fill="black"/>
</g>
<defs>
<clipPath id="clip0_328_3253">
<rect width="35" height="35" fill="white"/>
</clipPath>
</defs>
</svg>
