<svg width="50" height="50" viewBox="0 0 50 50" fill="none" xmlns="http://www.w3.org/2000/svg">
<circle cx="25" cy="25" r="24.5" stroke="black"/>
<path d="M29.667 23.9147L22.9918 17.2396C22.8374 17.0851 22.6313 17 22.4115 17C22.1918 17 21.9857 17.0851 21.8313 17.2396L21.3397 17.7311C21.0198 18.0513 21.0198 18.5718 21.3397 18.8916L26.945 24.4969L21.3335 30.1084C21.1791 30.2629 21.0939 30.4689 21.0939 30.6885C21.0939 30.9084 21.1791 31.1144 21.3335 31.269L21.8251 31.7604C21.9796 31.9149 22.1856 32 22.4053 32C22.6251 32 22.8312 31.9149 22.9856 31.7604L29.667 25.0792C29.8217 24.9242 29.9067 24.7173 29.9062 24.4973C29.9067 24.2764 29.8217 24.0696 29.667 23.9147Z" fill="black"/>
</svg>
