<svg width="50" height="50" viewBox="0 0 50 50" fill="none" xmlns="http://www.w3.org/2000/svg">
<circle cx="25" cy="25" r="24.5" stroke="black"/>
<g clip-path="url(#clip0_532_1168)">
<path d="M21.333 25.0853L28.0082 31.7604C28.1626 31.9149 28.3687 32 28.5885 32C28.8082 32 29.0143 31.9149 29.1687 31.7604L29.6603 31.2689C29.9802 30.9487 29.9802 30.4282 29.6603 30.1084L24.055 24.5031L29.6665 18.8916C29.8209 18.7371 29.9061 18.5311 29.9061 18.3115C29.9061 18.0916 29.8209 17.8856 29.6665 17.731L29.1749 17.2396C29.0204 17.0851 28.8144 17 28.5947 17C28.3749 17 28.1688 17.0851 28.0144 17.2396L21.333 23.9208C21.1783 24.0758 21.0933 24.2827 21.0938 24.5027C21.0933 24.7236 21.1783 24.9304 21.333 25.0853Z" fill="black"/>
</g>
<defs>
<clipPath id="clip0_532_1168">
<rect width="15" height="15" fill="white" transform="translate(33 32) rotate(-180)"/>
</clipPath>
</defs>
</svg>
