<svg width="50" height="50" viewBox="0 0 50 50" fill="none" xmlns="http://www.w3.org/2000/svg">
<circle cx="25" cy="25" r="24.5" stroke="white"/>
<g clip-path="url(#clip0_440_782)">
<path d="M21.3331 25.0853L28.0083 31.7604C28.1627 31.9149 28.3688 32 28.5886 32C28.8083 32 29.0144 31.9149 29.1688 31.7604L29.6604 31.2689C29.9803 30.9487 29.9803 30.4282 29.6604 30.1084L24.0551 24.5031L29.6666 18.8916C29.821 18.7371 29.9063 18.5311 29.9063 18.3115C29.9063 18.0916 29.821 17.8856 29.6666 17.731L29.175 17.2396C29.0205 17.0851 28.8146 17 28.5948 17C28.375 17 28.1689 17.0851 28.0146 17.2396L21.3331 23.9208C21.1784 24.0758 21.0934 24.2827 21.0939 24.5027C21.0934 24.7236 21.1784 24.9304 21.3331 25.0853Z" fill="white"/>
</g>
<defs>
<clipPath id="clip0_440_782">
<rect width="15" height="15" fill="white" transform="translate(33 32) rotate(-180)"/>
</clipPath>
</defs>
</svg>
