<svg width="50" height="50" viewBox="0 0 50 50" fill="none" xmlns="http://www.w3.org/2000/svg">
<circle cx="25" cy="25" r="24.5" stroke="white"/>
<path d="M29.6669 23.9147L22.9917 17.2396C22.8373 17.0851 22.6312 17 22.4114 17C22.1917 17 21.9856 17.0851 21.8312 17.2396L21.3396 17.7311C21.0197 18.0513 21.0197 18.5718 21.3396 18.8916L26.9449 24.4969L21.3334 30.1084C21.179 30.2629 21.0938 30.4689 21.0938 30.6885C21.0938 30.9084 21.179 31.1144 21.3334 31.269L21.825 31.7604C21.9795 31.9149 22.1854 32 22.4052 32C22.625 32 22.8311 31.9149 22.9854 31.7604L29.6669 25.0792C29.8216 24.9242 29.9066 24.7173 29.9061 24.4973C29.9066 24.2764 29.8216 24.0696 29.6669 23.9147Z" fill="white"/>
</svg>
